<svg width="19" height="19" fill="none" xmlns="http://www.w3.org/2000/svg"><path d="M18.75 2.279a.705.705 0 010 1.013l-5.63 5.754a.706.706 0 000 1.013l5.666 5.681a.704.704 0 010 1.014l-2.057 2.044a.757.757 0 01-1.029 0l-5.703-5.663a.722.722 0 00-1.029 0L3.301 18.78a.757.757 0 01-1.028 0L.215 16.754a.725.725 0 010-1.032l5.685-5.7a.724.724 0 000-1.03L.215 3.31a.724.724 0 010-1.031L2.291.216a.722.722 0 011.029 0l5.702 5.681a.757.757 0 001.03 0L15.663.234a.722.722 0 011.029 0l2.057 2.045z" fill="#D0D0D0"/></svg>