<svg width="13" height="13" fill="none" xmlns="http://www.w3.org/2000/svg"><path d="M12.79 11.142a2.753 2.753 0 00-.942-1.432 11.457 11.457 0 00-2.924-1.327 4.272 4.272 0 01-.704-.265.917.917 0 01-.314-.6v-.416A8.145 8.145 0 009.065 2.9a2.642 2.642 0 00-.028-.973 2.58 2.58 0 00-.377-.887 2.395 2.395 0 00-.667-.664 2.24 2.24 0 00-.856-.339 2.256 2.256 0 00-.639 0 2.187 2.187 0 00-.92.023c-.303.074-.589.21-.841.403a2.427 2.427 0 00-.628.718c-.163.282-.27.595-.318.922a3.272 3.272 0 000 .797 8.02 8.02 0 001.332 4.305v.242a.907.907 0 01-.099.335.852.852 0 01-.215.265c-.224.132-.46.24-.704.324a12.16 12.16 0 00-2.923 1.304 2.84 2.84 0 00-.942 1.466A6.286 6.286 0 00.002 13h12.993a6.295 6.295 0 00-.205-1.858z" fill="#000"/></svg>